<svg xmlns="http://www.w3.org/2000/svg" enable-background="new 0 0 68 68" viewBox="0 0 68 68"><path fill="#F37D7F" d="M51.87226,5.00169v59c0,1.10457-0.89543,2-2,2H11.20559v-64h37.66667
			C50.52911,2.00168,51.87226,3.34483,51.87226,5.00169z"/><path fill="#EF3F3E" d="M51.87383,5.00049v59c0,1.10457-0.89543,2-2,2H11.20379v-6.64996
			C49.48382,58.55054,45.0938,2.00049,45.0938,2.00049h3.78003C50.53069,2.00049,51.87383,3.34363,51.87383,5.00049z"/><path fill="#EF3F3E" d="M11.20559,2.00168v64H3.53893c-1.10457,0-2-0.89543-2-2v-59c0-1.65685,1.34315-3,3-3H11.20559z"/><path fill="#FFF" d="M44.03893,20.00168v11c0,1.10457-0.89543,2-2,2h-21c-1.10457,0-2-0.89543-2-2v-11c0-1.10457,0.89543-2,2-2
			h21C43.1435,18.00168,44.03893,18.89712,44.03893,20.00168z"/><path fill="#C6CAD0" d="M44.04382,20.00049v11c0,1.11005-0.90002,2-2,2H21.32384c11.95996-2.94995,17.37-10.44995,19.62-15
			h1.09998C43.14379,18.00049,44.04382,18.90051,44.04382,20.00049z"/><polygon fill="#96C93D" points="19.039 1.997 19.039 13.087 22.539 10.087 26.039 13.087 26.039 1.997"/><path fill="#72B844" d="M26.04382,2.32049v10.77002l-3.5-3l-3.5,3v-1.85999C22.9638,9.74054,25.01385,5.52051,26.04382,2.32049z"/><path fill="#06A488" d="M66.46057,7.91691v44.77907h-9.4871V7.91691c0-0.52396,0.42475-0.94871,0.94871-0.94871h7.58968
			C66.03581,6.9682,66.46057,7.39295,66.46057,7.91691z"/><path fill="#C6CAD0" d="M66.46057,52.69125c0,7.41655-3.90868,11.62565-4.74355,13.31043
			c-1.10054-1.91769-2.88393-4.01881-3.9751-7.81742c-0.50278-1.77408-0.76845-3.62402-0.76845-5.49301H66.46057z"/><path fill="#A3A6A8" d="M64.08879,2.47604v4.49688h-4.74355V2.47604c0-0.26198,0.21238-0.47435,0.47436-0.47435h3.79484
			C63.87642,2.00168,64.08879,2.21406,64.08879,2.47604z"/><line x1="56.973" x2="66.461" y1="12.513" y2="12.513" fill="#A3A6A8"/><line x1="56.973" x2="66.461" y1="17.583" y2="17.583" fill="#A3A6A8"/><path fill="#FFF" d="M1.53893,60.00165v4c0,1.10457,0.89543,2,2,2H49.8706c1.10457,0,2-0.89543,2-2v-4H1.53893z"/><path fill="#C6CAD0" d="M51.87383,60.00049v4c0,1.10457-0.89543,2-2,2H7.73382
			C29.10381,65.49054,51.87383,60.00049,51.87383,60.00049z"/><path fill="#010101" d="M48.87503,1C32.53078,1,30.24632,1,4.535,1c-2.20001,0-4,1.80005-4,4v55v4c0,1.66004,1.35004,3,3,3
			c10.24813,0,36.83468,0,46.34003,0c1.64996,0,3-1.33997,3-3v-4V5C52.87503,2.80005,51.07498,1,48.87503,1z M50.87503,5v54
			H12.20499V3H18.035v10.09003c0,0.39001,0.22998,0.73999,0.59003,0.90997c0.34998,0.16003,0.76996,0.10004,1.06-0.14996
			l2.84998-2.45001l2.85004,2.45001c0.33077,0.26115,0.73119,0.3063,1.06995,0.14996
			c0.36005-0.16998,0.58002-0.51996,0.58002-0.90997V3h21.84003C49.97501,3,50.87503,3.90002,50.87503,5z M25.035,3v7.91003
			l-1.84998-1.58002c-0.17999-0.15997-0.41003-0.23999-0.65002-0.23999c-0.22998,0-0.46002,0.08002-0.64996,0.23999L20.035,10.91003
			V3H25.035z M4.535,3h5.66998v56H2.535V5C2.535,3.90002,3.43503,3,4.535,3z M50.87503,64c0,0.55005-0.45001,1-1,1
			c-24.12315,0-23.3275,0-46.34003,0c-0.54999,0-1-0.44995-1-1v-3c7.17249,0,41.24632,0,48.34003,0V64z"/><path fill="#010101" d="M21.035 17c-1.64996 0-3 1.35004-3 3v11c0 1.66003 1.35004 3 3 3h21c1.66003 0 3-1.33997 3-3V20c0-1.64996-1.33997-3-3-3H21.035zM43.035 20v11c0 .55005-.44 1-1 1h-21c-.54999 0-1-.44995-1-1V20c0-.54999.45001-1 1-1h21C42.595 19 43.035 19.45001 43.035 20zM19.03909 44.00152h25c.55225 0 1-.44775 1-1s-.44775-1-1-1h-25c-.55225 0-1 .44775-1 1S18.48685 44.00152 19.03909 44.00152zM44.03909 49.00152h-25c-.55225 0-1 .44775-1 1s.44775 1 1 1h25c.55225 0 1-.44775 1-1S44.59134 49.00152 44.03909 49.00152zM65.51498 5.97003h-.42999V2.48004C65.08499 1.66003 64.42502 1 63.61502 1h-3.79999c-.81 0-1.47003.66003-1.47003 1.48004v3.48999h-.41998c-1.08002 0-1.95001.87-1.95001 1.95001 0 26.38749 0 15.29754 0 44.76996v.01001c0 7.43488 3.78627 11.84951 4.87 13.79999.17999.31.51001.5.87.5h.03003c.37-.00995.70001-.21997.87-.54999.13-.26996.39996-.67999.70001-1.14001 1.44995-2.20996 4.14996-6.31995 4.14996-12.60999V52.69 7.92004C67.465 6.84002 66.58499 5.97003 65.51498 5.97003zM65.465 13.51275v3.07031h-7.52997v-3.07031H65.465zM57.97501 51.69l-.03998-33.10693h2.7818v16.9414c0 .55225.44775 1 1 1s1-.44775 1-1v-16.9414H65.465V51.69H57.97501zM60.345 3h2.73999v2.97003H60.345V3zM57.92502 7.97003c.32058-.00215 7.68376-.05116 7.53998-.04999v3.59271h-7.53998v-.00275V7.97003zM61.715 64.10004c-.01996-.02002-.02997-.04999-.04999-.07001-1.9883-3.09941-3.45095-6.08647-3.65997-10.33002h7.42999C65.18503 58.74005 63.06503 62.05005 61.715 64.10004z"/><path fill="#FFF" d="M41.04739,8.97955c-0.41406,0-0.75-0.33594-0.75-0.75v-2.5c0-0.41406,0.33594-0.75,0.75-0.75
			s0.75,0.33594,0.75,0.75v2.5C41.79739,8.64361,41.46146,8.97955,41.04739,8.97955z"/><g><path fill="#FFF" d="M41.04739,14.57916c-0.41406,0-0.75-0.33594-0.75-0.75v-2.5c0-0.41406,0.33594-0.75,0.75-0.75
			s0.75,0.33594,0.75,0.75v2.5C41.79739,14.24322,41.46146,14.57916,41.04739,14.57916z"/></g></svg>