<svg xmlns="http://www.w3.org/2000/svg" enable-background="new 0 0 64 64" viewBox="0 0 64 64"><path fill="#007da1" d="M61.5,32v27.48c0,0.83-0.67,1.5-1.5,1.5h-9.44h-12.3H25.74h-12.3H4c-0.83,0-1.5-0.67-1.5-1.5V32v-5.28
	c0-0.23,0.06-0.45,0.15-0.65c-0.67-7.12,1.09-9.36,2.79-11.52c0.72-0.9,1.4-1.75,1.87-3.06c0.21-0.59,0.78-0.99,1.41-0.99
	s1.2,0.4,1.41,0.99c0.47,1.31,1.15,2.16,1.87,3.06c1.7,2.16,3.46,4.39,2.79,11.52c0.09,0.2,0.15,0.41,0.15,0.65v3.78h2.78
	c-1.69-11.58,2.98-15.18,7.52-18.65c1.99-1.52,3.87-2.98,5.26-5.13V4c0-0.83,0.67-1.5,1.5-1.5c0.83,0,1.5,0.67,1.5,1.5v2.72
	c1.39,2.15,3.27,3.61,5.26,5.13c4.54,3.47,9.21,7.07,7.52,18.65h2.78v-3.78c0-0.24,0.06-0.45,0.15-0.65
	c-0.67-7.13,1.09-9.36,2.79-11.52c0.72-0.9,1.4-1.75,1.87-3.06c0.21-0.59,0.78-0.99,1.41-0.99c0.63,0,1.2,0.4,1.41,0.99
	c0.47,1.31,1.15,2.16,1.87,3.06c1.7,2.16,3.46,4.4,2.79,11.52c0.09,0.2,0.15,0.42,0.15,0.65V32z M58.5,57.98V33.5h-6.44v24.48H58.5z
	 M58.5,30.5v-2.28h-6.44v2.28H58.5z M58.42,25.22c0.43-5.47-0.8-7.02-2.21-8.8c-0.3-0.38-0.62-0.78-0.93-1.22
	c-0.31,0.44-0.62,0.84-0.92,1.22c-1.42,1.78-2.65,3.33-2.21,8.8H58.42z M49.06,57.98V37.94H32H14.94v20.04h9.3V45.77
	c0-0.82,0.67-1.5,1.5-1.5h0.29c0.48-2.23,2.06-3.09,3.36-3.8c0.59-0.32,1.14-0.63,1.62-1.05c0.29-0.24,0.64-0.37,0.99-0.37
	c0.35,0,0.7,0.13,0.99,0.37c0.48,0.42,1.03,0.73,1.62,1.05c1.3,0.71,2.88,1.57,3.36,3.8h0.29c0.83,0,1.5,0.68,1.5,1.5v12.21H49.06z
	 M49.06,34.94V33.5h-4.54H19.48h-4.54v1.44H49.06z M43.26,30.5c1.62-10.2-2.07-13.02-6.32-16.26c-1.7-1.31-3.45-2.65-4.94-4.47
	c-1.49,1.82-3.24,3.16-4.94,4.47c-4.25,3.24-7.94,6.06-6.32,16.26H43.26z M36.76,57.98V47.27h-0.14c-0.83,0-1.5-0.67-1.5-1.5
	c0-1.6-0.57-1.92-1.95-2.67c-0.37-0.2-0.77-0.42-1.17-0.68c-0.4,0.26-0.8,0.48-1.17,0.68c-1.38,0.75-1.95,1.07-1.95,2.67
	c0,0.83-0.67,1.5-1.5,1.5h-0.14v10.71H36.76z M11.94,57.98V33.5H5.5v24.48H11.94z M11.94,30.5v-2.28H5.5v2.28H11.94z M11.85,25.22
	c0.44-5.47-0.79-7.02-2.21-8.8c-0.3-0.38-0.61-0.78-0.92-1.22c-0.31,0.44-0.63,0.84-0.93,1.22c-1.41,1.78-2.64,3.33-2.21,8.8H11.85z
	"/><rect width="6.44" height="24.48" x="52.06" y="33.5" fill="#e3fcfd"/><rect width="6.44" height="2.28" x="52.06" y="28.22" fill="#e3fcfd"/><path fill="#42eaf5" d="M56.21,16.42c1.41,1.78,2.64,3.33,2.21,8.8h-6.27c-0.44-5.47,0.79-7.02,2.21-8.8
	c0.3-0.38,0.61-0.78,0.92-1.22C55.59,15.64,55.91,16.04,56.21,16.42z"/><path fill="#e3fcfd" d="M49.06,37.94v20.04h-9.3V45.77c0-0.82-0.67-1.5-1.5-1.5h-0.29c-0.48-2.23-2.06-3.09-3.36-3.8
	c-0.59-0.32-1.14-0.63-1.62-1.05c-0.29-0.24-0.64-0.37-0.99-0.37v-1.11H49.06z"/><polygon fill="#e3fcfd" points="49.06 33.5 49.06 34.94 14.94 34.94 14.94 33.5 19.48 33.5 44.52 33.5"/><path fill="#42eaf5" d="M36.94,14.24c4.25,3.24,7.94,6.06,6.32,16.26H20.74c-1.62-10.2,2.07-13.02,6.32-16.26
	c1.7-1.31,3.45-2.65,4.94-4.47C33.49,11.59,35.24,12.93,36.94,14.24z M40.68,26c0.01-5.13-2.45-7-5.56-9.38
	c-0.66-0.51-1.6-0.38-2.1,0.28c-0.51,0.66-0.38,1.6,0.28,2.1c3.01,2.3,4.38,3.35,4.38,7c-0.01,0.83,0.67,1.5,1.49,1.5h0.01
	C40,27.5,40.67,26.83,40.68,26z"/><path fill="#007da1" d="M35.12,16.62c3.11,2.38,5.57,4.25,5.56,9.38c-0.01,0.83-0.68,1.5-1.5,1.5h-0.01c-0.82,0-1.5-0.67-1.49-1.5
	c0-3.65-1.37-4.7-4.38-7c-0.66-0.5-0.79-1.44-0.28-2.1C33.52,16.24,34.46,16.11,35.12,16.62z"/><path fill="#42eaf5" d="M36.76,47.27v10.71h-9.52V47.27h0.14c0.83,0,1.5-0.67,1.5-1.5c0-1.6,0.57-1.92,1.95-2.67
	c0.37-0.2,0.77-0.42,1.17-0.68c0.4,0.26,0.8,0.48,1.17,0.68c1.38,0.75,1.95,1.07,1.95,2.67c0,0.83,0.67,1.5,1.5,1.5H36.76z"/><path fill="#e3fcfd" d="M32,37.94v1.11c-0.35,0-0.7,0.13-0.99,0.37c-0.48,0.42-1.03,0.73-1.62,1.05c-1.3,0.71-2.88,1.57-3.36,3.8
	h-0.29c-0.83,0-1.5,0.68-1.5,1.5v12.21h-9.3V37.94H32z"/><rect width="6.44" height="24.48" x="5.5" y="33.5" fill="#e3fcfd"/><rect width="6.44" height="2.28" x="5.5" y="28.22" fill="#e3fcfd"/><path fill="#42eaf5" d="M9.64,16.42c1.42,1.78,2.65,3.33,2.21,8.8H5.58c-0.43-5.47,0.8-7.02,2.21-8.8c0.3-0.38,0.62-0.78,0.93-1.22
	C9.03,15.64,9.34,16.04,9.64,16.42z"/></svg>