<svg xmlns="http://www.w3.org/2000/svg" data-name="Layer 1" viewBox="0 0 512 512"><g data-name="&lt;Group&gt;"><g data-name="&lt;Group&gt;"><path fill="#00acea" d="M401.94,296.28,490.5,459.79H376.67L316.32,347.44l31.03-57.75c14.34,4.19,31.61,6.64,50.2,6.64C399.02,296.33,400.48,296.31,401.94,296.28Z" data-name="&lt;Group&gt;"/><path fill="#d4e1f4" d="M347.35,289.69a101.468,101.468,0,0,1-21.05-8.54,49.612,49.612,0,0,1-12.7-9.74,35.4,35.4,0,0,1,27.32-57.91c1.06,0,2.11.05,3.15.14a56.953,56.953,0,0,1,108.66,12.73c.16.98.29,1.97.41,2.97a26.268,26.268,0,0,1,4.71-1.11,26.441,26.441,0,0,1,30.14,26.19,26.2,26.2,0,0,1-.71,6.11,25.555,25.555,0,0,1-1.99,5.54c0,.01,0,.01-.01.01a34.1,34.1,0,0,1-10.26,11.1c-15,10.95-41.97,18.46-73.08,19.1-1.46.03-2.92.05-4.39.05C378.96,296.33,361.69,293.88,347.35,289.69Z" data-name="&lt;Group&gt;"/><polygon fill="#00efd1" points="316.32 347.44 376.67 459.79 255.02 459.79 223.42 459.79 88.69 459.79 155.24 335.89 232.68 191.73 316.32 347.44" data-name="&lt;Group&gt;"/><path fill="#fedb41" d="M162.99,111.67a42.115,42.115,0,1,1-42.11,42.12A42.123,42.123,0,0,1,162.99,111.67Z" data-name="&lt;Group&gt;"/><polygon fill="#00acea" points="155.24 335.89 88.69 459.79 21.5 459.79 122.46 274.89 155.23 335.88 155.24 335.89" data-name="&lt;Group&gt;"/></g><g data-name="&lt;Group&gt;"><path fill="#083863" d="M418.215 305.33c25.745-2.513 48.476-9.69 62.707-20.078a44.127 44.127 0 0 0 13.024-14.173c.144-.248.277-.5.4-.762a35.4 35.4 0 0 0 2.66-7.457 36.471 36.471 0 0 0-35.455-44.89c-.144 0-.286 0-.43 0a66.967 66.967 0 0 0-123.3-14.369 45.39 45.39 0 0 0-31.941 74.164c.09.109.182.217.277.323a59.432 59.432 0 0 0 15.255 11.784 97.779 97.779 0 0 0 11.559 5.449l-16.65 30.986L241.489 187a10 10 0 0 0-17.619 0l-68.632 127.77-23.969-44.611a10 10 0 0 0-17.585-.059L12.724 455A10.159 10.159 0 0 0 21.5 470H88.649l.033 0 .029 0H490.5a10.134 10.134 0 0 0 8.793-14.92zm-97.032-40.444A25.4 25.4 0 0 1 340.92 223.5c.732 0 1.5.035 2.285.1a10.012 10.012 0 0 0 10.08-6.078 46.953 46.953 0 0 1 89.574 10.449c.138.844.248 1.7.352 2.558a10 10 0 0 0 13.126 8.283 16.236 16.236 0 0 1 2.9-.682 16.656 16.656 0 0 1 2.31-.163 16.472 16.472 0 0 1 15.989 20.3 15.487 15.487 0 0 1-1.114 3.164 24.792 24.792 0 0 1-7.3 7.669c-13.731 10.024-39.553 16.606-67.39 17.179-1.391.029-2.783.048-4.183.048-17.037 0-33.426-2.157-47.4-6.239l-.007 0a91.352 91.352 0 0 1-18.955-7.66A40.093 40.093 0 0 1 321.183 264.886zm-198.793 31.1l21.5 40.064L82.711 450H38.354zM223.42 450H105.413L232.68 213.072 359.947 450H223.42zm159.229 0L327.672 347.546l24.762-46.138a198.23 198.23 0 0 0 43.571 5.041L473.711 450zM162.99 205.9a52.115 52.115 0 1 0-52.11-52.11A52.174 52.174 0 0 0 162.99 205.9zm0-84.23a32.115 32.115 0 1 1-32.11 32.12A32.156 32.156 0 0 1 162.99 121.67z" data-name="&lt;Compound Path&gt;"/><path fill="#083863" d="M153 224.36v31a10 10 0 0 0 20 0v-31a10 10 0 0 0-20 0zM163 93.21a10 10 0 0 0 10-10v-31a10 10 0 0 0-20 0v31A10 10 0 0 0 163 93.21zM61.42 164h31a10 10 0 1 0 0-20h-31a10 10 0 0 0 0 20zM223.57 154a10 10 0 0 0 10 10h30.99a10 10 0 0 0 0-20H233.57A10 10 0 0 0 223.57 154zM106.269 196.369l-21.69 21.69A10 10 0 0 0 98.722 232.2l21.689-21.69a10 10 0 0 0-14.142-14.142zM212.65 114.13a9.973 9.973 0 0 0 7.072-2.929l21.689-21.69a10 10 0 0 0-14.142-14.142l-21.69 21.69a10 10 0 0 0 7.071 17.071zM106.269 111.2a10 10 0 0 0 14.142-14.142L98.722 75.369A10 10 0 1 0 84.579 89.511z" data-name="&lt;Path&gt;"/></g></g></svg>