<svg xmlns="http://www.w3.org/2000/svg" enable-background="new 0 0 64 64" viewBox="0 0 64 64"><path fill="#A5BADB" d="M23.152 28.53l-5-8C14.781 15.138 13 8.926 13 2.566V1h2v1.566c0 5.984 1.677 11.83 4.848 16.903l5 8L23.152 28.53zM41.895 28.447l-1.789-.895 4-8C47.323 14.396 49 8.551 49 2.566V1h2v1.566c0 6.359-1.781 12.571-5.152 17.964L41.895 28.447z"/><path fill="#FEAF73" d="M44.444,23.778l2.827,4.947C47.749,29.56,48,30.506,48,31.469v0C48,34.524,45.524,37,42.469,37H21.531
			C18.476,37,16,34.524,16,31.469v0c0-0.963,0.251-1.908,0.729-2.744l2.827-4.947L44.444,23.778z"/><path fill="#F9DD9D" d="M47.271,28.725l-2.827-4.947l-23.905,0l-1.811,3.169C18.251,27.783,18,28.729,18,29.691
			c0,3.055,2.476,5.531,5.531,5.531h5.066c0.089-0.12,0.18-0.239,0.285-0.345C27.744,33.96,27,32.572,27,31c0-2.757,2.243-5,5-5
			s5,2.243,5,5c0,1.572-0.744,2.96-1.882,3.877c0.106,0.105,0.196,0.225,0.285,0.345h9.066c0.927,0,1.799-0.231,2.566-0.634
			C47.643,33.7,48,32.627,48,31.469C48,30.506,47.749,29.56,47.271,28.725z"/><path fill="#B19367" d="M32,27L32,27c3.946,0,7.837-0.918,11.367-2.683L46,23v-0.586c0-0.906-0.36-1.774-1-2.414v0l-1.485,0.636
			C39.876,22.196,35.959,23,32,23h0h0c-3.959,0-7.876-0.804-11.515-2.364L19,20l0,0c-0.64,0.64-1,1.509-1,2.414V23l2.633,1.317
			C24.163,26.081,28.054,27,32,27L32,27z"/><path fill="#FEAF73" d="M33.397,50.451C37.308,51.877,40.677,54.516,43,58l0,0v-4.106c0-3.576-2.131-6.808-5.418-8.216l0,0
			c-1.045-0.448-1.995-1.091-2.8-1.895l-0.784-0.784L30,47L33.397,50.451z"/><path fill="#F9DD9D" d="M37.582,45.678c-0.996-0.427-1.902-1.036-2.682-1.788c-0.097,0.54-0.261,1.068-0.506,1.557
			C34.137,45.963,34,46.541,34,47.118c0,1.167,0.144,2.333,0.426,3.465c0.026,0.105,0.045,0.212,0.069,0.318
			C37.936,52.398,40.899,54.848,43,58v-4.106C43,50.318,40.869,47.087,37.582,45.678z"/><path fill="#40C1C1" d="M26,47.989L26,47.989c0,1.322,0.308,2.626,0.899,3.809l1.306,2.611C28.728,55.456,29,56.609,29,57.778l0,0
			c0,0.809-0.13,1.614-0.386,2.382L28,62l3.704-2.47C33.139,58.574,34,56.965,34,55.241v0c0-1.488-0.183-2.971-0.544-4.415v0
			C33.153,49.613,33,48.368,33,47.118l0,0c0-0.735,0.171-1.46,0.5-2.118l0,0c0.329-0.658,0.5-1.383,0.5-2.118l0,0
			c0-1.205-0.479-2.361-1.331-3.213L32,39l-2.935,2.446C27.123,43.064,26,45.462,26,47.989z"/><path fill="#FEAF73" d="M38.553,50.895l-0.205-0.103c-2.129-1.064-4.11-2.406-5.891-3.988l-2.153-2.086l1.393-1.436l2.121,2.057
			c1.617,1.436,3.453,2.678,5.425,3.664l0.205,0.103L38.553,50.895z"/><path fill="#5FE0DC" d="M33.456,50.826C33.153,49.613,33,48.368,33,47.118c0-0.735,0.171-1.46,0.5-2.118
			c0.329-0.658,0.5-1.383,0.5-2.118c0-1.205-0.479-2.361-1.331-3.213l-0.306-0.306l-1.299,1.082C29.123,42.064,28,44.462,28,46.989
			c0,1.322,0.308,2.626,0.899,3.809l1.306,2.611C30.728,54.456,31,55.609,31,56.778c0,0.81-0.13,1.614-0.386,2.382l-0.471,1.412
			l1.562-1.041C33.139,58.574,34,56.965,34,55.241C34,53.753,33.817,52.27,33.456,50.826z"/><path fill="#E73844" d="M28,62l3.704-2.47C33.139,58.574,34,56.965,34,55.241c0-0.623-0.039-1.244-0.103-1.862L31,57l-2.563-2.051
			C28.801,55.847,29,56.805,29,57.778c0,0.81-0.13,1.614-0.386,2.382L28,62z"/><path fill="#FF4D55" d="M33.897,53.379L31,57l-0.017-0.013c-0.021,0.738-0.136,1.471-0.37,2.173l-0.471,1.412l1.562-1.041
			C33.139,58.574,34,56.965,34,55.241C34,54.618,33.961,53.997,33.897,53.379z"/><path fill="#40C1C1" d="M32.669,39.669L32,39l-1.554,1.295C29.488,43.099,29,46.02,29,49h2c0-3.169,0.596-6.268,1.766-9.213
			C32.731,39.75,32.705,39.705,32.669,39.669z"/><circle cx="32" cy="31" r="4" fill="#E73844"/><path fill="#40C1C1" d="M33,39h-2c-1.105,0-2-0.895-2-2v0c0-1.105,0.895-2,2-2h2c1.105,0,2,0.895,2,2v0C35,38.105,34.105,39,33,39
			z"/><path fill="#5FE0DC" d="M33,35h-2c-0.293,0-0.569,0.067-0.82,0.18C30.067,35.431,30,35.707,30,36c0,1.105,0.895,2,2,2h2
			c0.293,0,0.569-0.067,0.82-0.18C34.933,37.569,35,37.293,35,37C35,35.895,34.105,35,33,35z"/><path fill="#FF4D55" d="M32,27c-0.849,0-1.633,0.268-2.281,0.719C29.268,28.367,29,29.151,29,30c0,2.209,1.791,4,4,4
			c0.849,0,1.633-0.268,2.281-0.72C35.732,32.633,36,31.849,36,31C36,28.791,34.209,27,32,27z"/><path fill="#C6AA89" d="M34,26c3.944,0,7.834-0.918,11.361-2.681L46,23v-0.586c0-0.906-0.36-1.774-1-2.414l-1.485,0.636
			C39.876,22.196,35.959,23,32,23s-7.876-0.804-11.515-2.364l-0.341-0.146c-0.008,0.03-0.017,0.069-0.025,0.115
			c-0.139,0.806,0.296,1.603,1.028,1.968l1.486,0.743C26.163,25.081,30.054,26,34,26z"/><path d="M13,1v1.566c0,6.118,1.664,12.091,4.791,17.338C17.281,20.637,17,21.503,17,22.414V23c0,0.379,0.214,0.726,0.553,0.895
			l0.61,0.305l-2.302,4.029c-0.562,0.985-0.86,2.105-0.86,3.24C15,35.07,17.93,38,21.531,38h6.653
			c0.258,0.724,0.783,1.314,1.46,1.661l-1.22,1.017C26.248,42.492,25,45.156,25,47.989c0,1.47,0.348,2.941,1.005,4.257l1.306,2.611
			C27.762,55.76,28,56.771,28,57.778c0,0.702-0.113,1.396-0.336,2.064l-0.612,1.841c-0.136,0.405,0.002,0.852,0.342,1.111
			C27.572,62.932,27.786,63,28,63c0.193,0,0.387-0.056,0.555-0.168l3.704-2.47C33.976,59.219,35,57.304,35,55.241
			c0-1.05-0.094-2.099-0.266-3.134c3.011,1.44,5.561,3.637,7.434,6.447C42.356,58.838,42.672,59,43,59
			c0.097,0,0.194-0.014,0.29-0.043C43.712,58.829,44,58.44,44,58v-4.105c0-3.981-2.364-7.567-6.024-9.136
			c-0.932-0.399-1.768-0.965-2.485-1.683l-0.522-0.522c-0.059-0.994-0.358-1.943-0.906-2.757c0.819-0.312,1.459-0.97,1.754-1.796
			h6.653C46.07,38,49,35.07,49,31.469c0-1.135-0.298-2.255-0.86-3.24l-2.302-4.029l0.61-0.305C46.786,23.726,47,23.379,47,23v-0.586
			c0-0.911-0.281-1.777-0.791-2.51C49.336,14.657,51,8.684,51,2.566V1h-2v1.566c0,5.885-1.63,11.632-4.699,16.646l-1.18,0.506
			C39.587,21.232,35.846,22,32,22s-7.587-0.768-11.121-2.282l-1.18-0.506C16.63,14.198,15,8.451,15,2.566V1H13z M17,31.469
			c0-0.787,0.206-1.564,0.597-2.248l2.358-4.126l0.232,0.116c2.529,1.264,5.27,2.105,8.07,2.509C27.484,28.6,27,29.74,27,31
			c0,1.572,0.744,2.96,1.882,3.877c-0.313,0.312-0.547,0.698-0.698,1.123h-6.653C19.032,36,17,33.968,17,31.469z M35,31
			c0,1.654-1.346,3-3,3s-3-1.346-3-3s1.346-3,3-3S35,29.346,35,31z M33,36c0.552,0,1,0.448,1,1s-0.448,1-1,1h-2
			c-0.552,0-1-0.448-1-1s0.448-1,1-1H33z M31.149,58.698l-1.346,0.896C29.935,58.999,30,58.391,30,57.778
			c0-1.316-0.312-2.636-0.9-3.815l-1.306-2.611C27.274,50.312,27,49.15,27,47.989c0-2.237,0.985-4.342,2.705-5.774l0.217-0.181
			C29.314,44.3,29,46.631,29,49h2c0-2.779,0.483-5.496,1.384-8.11C32.782,41.473,33,42.16,33,42.882
			c0,0.578-0.137,1.155-0.395,1.671C32.21,45.344,32,46.231,32,47.118c0,1.33,0.163,2.658,0.486,3.951
			C32.827,52.432,33,53.835,33,55.241C33,56.634,32.309,57.926,31.149,58.698z M37.188,46.597C40.111,47.85,42,50.715,42,53.895
			v1.187c-2.118-2.36-4.748-4.178-7.733-5.359c-0.099-0.533-0.168-1.069-0.206-1.609c1.342,1.021,2.774,1.922,4.287,2.679
			l0.205,0.103l0.895-1.789l-0.205-0.103c-1.778-0.889-3.435-1.995-4.95-3.272c0.038-0.093,0.058-0.194,0.103-0.284
			c0.078-0.156,0.143-0.318,0.206-0.48C35.375,45.64,36.24,46.191,37.188,46.597z M46.403,29.221C46.794,29.904,47,30.682,47,31.469
			C47,33.968,44.968,36,42.469,36h-6.653c-0.151-0.425-0.385-0.81-0.698-1.123C36.256,33.96,37,32.572,37,31
			c0-1.26-0.484-2.4-1.257-3.28c2.801-0.404,5.541-1.244,8.07-2.509l0.232-0.116L46.403,29.221z M32,24
			c4.118,0,8.125-0.822,11.908-2.444l0.778-0.333c0.199,0.35,0.308,0.746,0.313,1.159l-2.081,1.04
			c-6.746,3.373-15.092,3.373-21.838,0L19,22.382c0.006-0.413,0.114-0.81,0.313-1.159l0.778,0.333C23.875,23.178,27.882,24,32,24z"/></svg>