<svg xmlns="http://www.w3.org/2000/svg" enable-background="new 0 0 68 68" viewBox="0 0 68 68"><path fill="#92DA0D" d="M43.3728,17.9398c-5.7874,5.7874-9.3619,13.7876-9.3762,22.6247
				c17.6743,0,32.0009-14.3267,32.0009-32.0009C57.1605,8.5778,49.1602,12.1523,43.3728,17.9398z"/><path fill="#73B816" d="M66.0022,8.5615c0,17.68-14.33,32-32.01,32c0-0.8701,0.04-1.73,0.11-2.58
				c15.55-1.31,27.94-13.73,29.19-29.3C64.1822,8.6014,65.0923,8.5615,66.0022,8.5615z"/><path fill="#92DA0D" d="M24.6224,11.3761c5.7874,5.7874,9.3619,13.7876,9.3762,22.6247
					c-17.6743,0-32.0009-14.3267-32.0009-32.0009C10.8348,2.0141,18.835,5.5887,24.6224,11.3761z"/><path fill="#73B816" d="M1.993,1.9978c0,17.68,14.33,32,32.01,32c0-0.8701-0.04-1.73-0.11-2.58
					c-15.55-1.31-27.94-13.73-29.19-29.3C3.813,2.0378,2.903,1.9978,1.993,1.9978z"/><path fill="#FBC41A" d="M58.0512,50.1061c-2.2058,0-4.2006,0.8998-5.6403,2.351c-1.1038-2.2738-3.428-3.8454-6.1255-3.8454
				c-1.6798,0-3.215,0.6108-4.4028,1.6186v15.7685h16.1686c4.3887,0,7.9464-3.5577,7.9464-7.9463
				C65.9976,53.6638,62.4399,50.1061,58.0512,50.1061z"/><path fill="#F59F02" d="M66.0022,58.0515c0,4.39-3.56,7.95-7.95,7.95h-16.17v-2.65h11.02c4.39,0,7.94-3.56,7.94-7.95
				c0-2.02-0.75-3.86-1.98-5.26C62.8722,50.5515,66.0022,53.9315,66.0022,58.0515z"/><path fill="#FBC41A" d="M40.4781,50.0291c-2.2165,0-4.2209,0.9041-5.6676,2.3624c-1.1091-2.2849-3.4446-3.864-6.1552-3.864
				c-1.6879,0-3.2306,0.6138-4.4241,1.6265c-1.2169-2.8552-4.0482-4.8572-7.3479-4.8572c-4.4099,0-7.9848,3.5749-7.9848,7.9849
				c0,0.2469,0.015,0.4902,0.0369,0.7314c-0.2957-0.0445-0.5914-0.0907-0.8995-0.0907c-3.3348,0-6.0382,2.7034-6.0382,6.0383
				c0,3.3348,2.7034,6.0382,6.0382,6.0382h32.4422c4.41,0,7.9849-3.5749,7.9849-7.9848
				C48.4629,53.604,44.888,50.0291,40.4781,50.0291z"/><path fill="#F59F02" d="M48.4622,58.0114c0,4.41-3.57,7.99-7.98,7.99h-32.45c-2.74,0-5.05-1.83-5.78-4.34
				c0.28,0.05,0.57,0.07,0.87,0.07h32.44c4.41,0,7.98-3.58,7.98-7.98c0-1.21-0.27-2.36-0.75-3.3799
				C46.0722,51.3615,48.4622,54.4014,48.4622,58.0114z"/><path fill="#231F20" d="M58.0522,49.1014c-1.97,0-3.85,0.64-5.39,1.81c-1.45-2.06-3.8-3.3-6.38-3.3c-1.64,0-3.25,0.53-4.58,1.5
			c-0.4-0.05-0.81-0.08-1.22-0.08c-1.9901,0-3.87,0.64-5.42,1.82c-0.0203-0.0289-0.0448-0.0537-0.0654-0.0823v-9.23
			c17.7349-0.5318,32.001-15.1141,32.001-32.9756c0-0.2656-0.1055-0.52-0.2935-0.7075c-0.1875-0.1875-0.4414-0.2925-0.7065-0.2925
			c-0.0005,0-0.001,0-0.0015,0c-8.8237,0.0142-17.1094,3.4482-23.3306,9.6694c-3.6408,3.6406-6.3183,7.9915-7.923,12.7404
			c-0.8892-7.2966-4.1489-14.0417-9.4134-19.3054C19.1091,4.4473,10.8239,1.0132,1.9992,0.9986H1.9978
			c-0.2651,0-0.519,0.105-0.7065,0.2925C1.1032,1.4786,0.9978,1.733,0.9978,1.9986c0,17.8609,14.2653,32.443,31.999,32.9756v13.864
			c-1.2574-0.8377-2.7529-1.3068-4.3445-1.3068c-1.43,0-2.84,0.39-4.06,1.13c-1.61-2.68-4.52-4.36-7.71-4.36
			c-4.83,0-8.79,3.83-8.98,8.62c-3.82,0.07-6.9,3.2-6.9,7.04c0,3.88,3.15,7.04,7.03,7.04h32.45c0.36,0,0.71-0.02,1.06-0.0699
			c0.11,0.05,0.22,0.0699,0.34,0.0699h16.17c4.9301,0,8.95-4.02,8.95-8.95S62.9823,49.1014,58.0522,49.1014z M44.0798,18.647
			c5.6045-5.6045,12.9932-8.8013,20.9014-9.0654c-0.511,15.7841-12.8777,28.6224-28.4651,29.8811l7.4639-7.4639l6.1057-0.3152
			c0.5513-0.0283,0.9756-0.4985,0.9468-1.0503c-0.0283-0.5513-0.5029-0.9756-1.0503-0.9468l-3.8908,0.2009l4.0353-4.0353
			l5.8472-0.3018c0.5513-0.0283,0.9756-0.4985,0.9468-1.0503c-0.0283-0.5518-0.5073-0.9839-1.0503-0.9468l-3.6323,0.1875
			l6.5347-6.5347c0.3906-0.3906,0.3906-1.0234,0-1.4141s-1.0234-0.3906-1.4141,0l-6.8065,6.8065l0.2142-4.1492
			c0.0288-0.5518-0.3955-1.022-0.9468-1.0503c-0.5474-0.0386-1.0225,0.395-1.0503,0.9468l-0.329,6.3646l-3.763,3.763l0.2009-3.8908
			c0.0288-0.5518-0.3955-1.022-0.9468-1.0503c-0.543-0.0303-1.0225,0.3955-1.0503,0.9468l-0.3152,6.1057l-7.465,7.465
			C35.6946,30.7097,38.8308,23.8961,44.0798,18.647z M3.0144,3.0167c7.9087,0.2646,15.2969,3.4614,20.9009,9.0654
			c5.249,5.2486,8.3852,12.0623,8.9789,19.4028l-7.4646-7.4646l-0.3156-6.1061c-0.0283-0.5518-0.5146-0.979-1.0503-0.9468
			c-0.5513,0.0283-0.9756,0.4985-0.9468,1.0503l0.2009,3.8908l-3.763-3.763l-0.3285-6.3646
			c-0.0288-0.5518-0.5103-0.9868-1.0503-0.9468c-0.5513,0.0283-0.9756,0.4985-0.9468,1.0503l0.2142,4.1498l-6.807-6.807
			c-0.3906-0.3906-1.0234-0.3906-1.4141,0s-0.3906,1.0234,0,1.4141l6.5352,6.5352l-3.6323-0.1875
			c-0.5508-0.0376-1.022,0.395-1.0503,0.9468c-0.0288,0.5518,0.3955,1.022,0.9468,1.0503l5.8472,0.3018l4.0348,4.0348
			l-3.8908-0.2009c-0.5547-0.0293-1.022,0.3955-1.0503,0.9468c-0.0288,0.5518,0.3955,1.022,0.9468,1.0503l6.1061,0.3156
			l7.4634,7.4634C15.8916,31.6391,3.5254,18.8007,3.0144,3.0167z M40.8822,64.9814c-0.13,0.02-0.26,0.02-0.4,0.02h-32.45
			c-2.77,0-5.03-2.2599-5.03-5.04c0-2.78,2.26-5.04,5.03-5.04c0.25,0,0.49,0.04,0.75,0.08c0.31,0.05,0.62-0.05,0.84-0.2599
			c0.22-0.21,0.34-0.51,0.31-0.82c-0.02-0.21-0.03-0.42-0.03-0.64c0-3.85,3.13-6.98,6.98-6.98c2.81,0,5.33,1.66,6.43,4.24
			c0.12,0.3,0.38,0.51,0.69,0.59c0.31,0.07,0.63-0.0099,0.88-0.21c1.05-0.9,2.39-1.39,3.77-1.39c2.26,0,4.27,1.26,5.26,3.3
			c0.14,0.29,0.41,0.49,0.73,0.55c0.32,0.05,0.65-0.06,0.88-0.29c1.32-1.33,3.08-2.06,4.96-2.06c0.14,0,0.27,0,0.4,0.02
			c0.7,0.03,1.37,0.17,2,0.41c2.67,0.97,4.58,3.54,4.58,6.55s-1.91,5.58-4.58,6.56C42.2522,64.8115,41.5822,64.9514,40.8822,64.9814
			z M58.0522,65.0014H46.1123c2.04-1.64,3.35-4.16,3.35-6.99c0-3.55-2.07-6.63-5.07-8.08c0.61-0.21,1.24-0.32,1.89-0.32
			c2.24,0,4.25,1.26,5.23,3.28c0.14,0.29,0.41,0.5,0.73,0.55c0.32,0.06,0.65-0.05,0.88-0.28c1.31-1.33,3.06-2.06,4.93-2.06
			c3.83,0,6.95,3.12,6.95,6.95C65.0022,61.8814,61.8822,65.0014,58.0522,65.0014z"/><path fill="#FFF" d="M31.632 54.7969c-.1504 0-.3022-.0449-.4341-.1387-1.3037-.9263-2.9424-1.3447-4.4946-1.1421-.4126.0557-.7871-.2368-.8398-.6475-.0532-.4106.2368-.7871.6475-.8398 1.9233-.2505 3.9478.2642 5.5562 1.4067.3374.2397.4165.708.1768 1.0459C32.0979 54.6871 31.8664 54.7969 31.632 54.7969zM13.6384 51.9468c-.2808 0-.5498-.1582-.6782-.4287-.1772-.374-.0181-.8213.3564-.999 2.042-.9678 4.3164-1.1621 6.4072-.5483.397.1172.6245.5342.5078.9316-.1172.3975-.5347.6226-.9316.5078-1.7354-.5103-3.6309-.3457-5.3408.4644C13.8557 51.9239 13.7463 51.9468 13.6384 51.9468z"/></svg>